# xmcd
#
# Track frame offsets:
#	150
#	17800
#	32569
#	49168
#	61260
#	70769
#	86746
#	108013
#	120743
#
# Disc length: 1834 seconds
#
# Revision: 1
# Processed by: cddbd v1.5.2PL0 Copyright (c) Steve Scherf et al.
# Submitted via: EasyCDDAExtractor 7.0.4.1
#
DISCID=6e072809
DTITLE=Imperial sodomy - Tormenting the pacifist
DYEAR=2001
DGENRE=Brutal Death 
TTITLE0=Pacifistfucking
TTITLE1=70% vol
TTITLE2=Symphony of criminals
TTITLE3=Disorder bringers
TTITLE4=Violence
TTITLE5=Dead wishes
TTITLE6=In flesh I trust
TTITLE7=Basic instincts
TTITLE8=Lobotomized
EXTD=
EXTT0=
EXTT1=
EXTT2=
EXTT3=
EXTT4=
EXTT5=
EXTT6=
EXTT7=
EXTT8=
PLAYORDER=
